<?xml version="1.0" encoding="iso-8859-1"?>
<!-- Generator: Adobe Illustrator 18.1.1, SVG Export Plug-In . SVG Version: 6.00 Build 0)  -->
<svg xmlns="http://www.w3.org/2000/svg" xmlns:xlink="http://www.w3.org/1999/xlink" version="1.1" id="Capa_1" x="0px" y="0px" viewBox="0 0 57.5 57.5" style="enable-background:new 0 0 57.5 57.5;" xml:space="preserve" width="512px" height="512px">
<g>
	<path d="M35.367,15.627c-6.045,1.256-11.974,3.034-18.104,3.906c2.495-3.494,6.574-5.78,11.195-5.78   C30.979,13.754,33.335,14.444,35.367,15.627z M28.458,41.274c5.469,0,10.179-3.199,12.398-7.82   c-7.238,0.953-14.183,3.23-21.352,4.495C21.912,40.017,25.035,41.274,28.458,41.274z M7.528,38.532c0-0.877,0-1.315,0-2.191   c0-3.102,0-5.398,0-7.725C5.237,28.266,3.041,27.458,0,25.812c2.262,4.204,3.393,6.114,5.656,9.666   C3.393,37.887,2.262,38.957,0,40.713c5.467,2.957,8.201,3.215,13.668,2.957c0-1.9,0-3.495,0-4.983   c-1.247,0.093-2.501,0.153-3.771,0.139C8.949,38.752,8.476,38.695,7.528,38.532z M57.5,25.812c-3.218-1.74-5.551-2.572-7.972-2.898   c0,2.47,0,4.848,0,8.13c0,0.877,0,1.315,0,2.191c-0.77-0.118-1.156-0.162-1.926-0.222c-1.59-0.018-3.159,0.06-4.713,0.206   c0,1.378,0,2.859,0,4.595c5.845-0.434,8.767-0.263,14.611,2.899c-2.263-4.203-3.394-6.113-5.656-9.667   C54.107,28.639,55.238,27.568,57.5,25.812z M42.889,31.247c-0.413,0.039-0.823,0.091-1.233,0.14   c-8.096,0.96-15.805,3.65-23.838,4.85c-1.372,0.205-2.755,0.363-4.15,0.464c-1.367,0.098-2.744,0.151-4.14,0.118   c0-3.23,0-5.58,0-8.009c0-2.029,0-4.113,0-6.811c2.2,0.052,4.358-0.089,6.492-0.342c7.304-0.864,14.3-3.146,21.512-4.469   c3.271-0.6,6.585-1.004,9.995-0.978c0,2.579,0,4.597,0,6.542c0,2.526,0,4.929,0,8.278C45.963,31.019,44.419,31.102,42.889,31.247z    M30.664,28.056l3.098-2.251h-3.829l-1.183-3.641l-1.183,3.641h-3.829l3.097,2.251l-1.183,3.641l3.098-2.25l3.097,2.25   L30.664,28.056z" fill="#f2ad9f"/>
</g>
</svg>
